<mxfile host="www.draw.io" modified="2024-04-08T11:38:22.395Z" agent="Mozilla/5.0 (Windows NT 10.0; Win64; x64) AppleWebKit/537.36 (KHTML, like Gecko) Chrome/122.0.0.0 Safari/537.36" etag="gp0NcpMr1tpMBEGKI0_h" version="24.2.2" type="device">
  <diagram name="第 1 页" id="j16WYFU8eGbYuo48yvcO">
    <mxGraphModel dx="1397" dy="841" grid="1" gridSize="10" guides="1" tooltips="1" connect="1" arrows="1" fold="1" page="1" pageScale="1" pageWidth="827" pageHeight="1169" math="0" shadow="0">
      <root>
        <mxCell id="0" />
        <mxCell id="1" parent="0" />
        <mxCell id="FMnDoWdGnpKnjQVp8P1--28" value="" style="group;fontStyle=1" vertex="1" connectable="0" parent="1">
          <mxGeometry x="140" y="180" width="300" height="180" as="geometry" />
        </mxCell>
        <mxCell id="FMnDoWdGnpKnjQVp8P1--2" value="" style="endArrow=none;html=1;rounded=0;fontStyle=1" edge="1" parent="FMnDoWdGnpKnjQVp8P1--28">
          <mxGeometry width="50" height="50" relative="1" as="geometry">
            <mxPoint as="sourcePoint" />
            <mxPoint x="300" as="targetPoint" />
          </mxGeometry>
        </mxCell>
        <mxCell id="FMnDoWdGnpKnjQVp8P1--3" value="" style="endArrow=none;html=1;rounded=0;fontStyle=1" edge="1" parent="FMnDoWdGnpKnjQVp8P1--28">
          <mxGeometry width="50" height="50" relative="1" as="geometry">
            <mxPoint y="30" as="sourcePoint" />
            <mxPoint x="300" y="30" as="targetPoint" />
          </mxGeometry>
        </mxCell>
        <mxCell id="FMnDoWdGnpKnjQVp8P1--4" value="" style="endArrow=none;html=1;rounded=0;fontStyle=1" edge="1" parent="FMnDoWdGnpKnjQVp8P1--28">
          <mxGeometry width="50" height="50" relative="1" as="geometry">
            <mxPoint y="90" as="sourcePoint" />
            <mxPoint x="300" y="90" as="targetPoint" />
          </mxGeometry>
        </mxCell>
        <mxCell id="FMnDoWdGnpKnjQVp8P1--5" value="" style="endArrow=none;html=1;rounded=0;fontStyle=1" edge="1" parent="FMnDoWdGnpKnjQVp8P1--28">
          <mxGeometry width="50" height="50" relative="1" as="geometry">
            <mxPoint y="60" as="sourcePoint" />
            <mxPoint x="300" y="60" as="targetPoint" />
          </mxGeometry>
        </mxCell>
        <mxCell id="FMnDoWdGnpKnjQVp8P1--6" value="" style="endArrow=none;html=1;rounded=0;fontStyle=1" edge="1" parent="FMnDoWdGnpKnjQVp8P1--28">
          <mxGeometry width="50" height="50" relative="1" as="geometry">
            <mxPoint y="120" as="sourcePoint" />
            <mxPoint x="300" y="120" as="targetPoint" />
          </mxGeometry>
        </mxCell>
        <mxCell id="FMnDoWdGnpKnjQVp8P1--7" value="" style="endArrow=none;html=1;rounded=0;fontStyle=1" edge="1" parent="FMnDoWdGnpKnjQVp8P1--28">
          <mxGeometry width="50" height="50" relative="1" as="geometry">
            <mxPoint y="150" as="sourcePoint" />
            <mxPoint x="300" y="150" as="targetPoint" />
          </mxGeometry>
        </mxCell>
        <mxCell id="FMnDoWdGnpKnjQVp8P1--8" value="" style="endArrow=none;html=1;rounded=0;fontStyle=1" edge="1" parent="FMnDoWdGnpKnjQVp8P1--28">
          <mxGeometry width="50" height="50" relative="1" as="geometry">
            <mxPoint y="180" as="sourcePoint" />
            <mxPoint x="300" y="180" as="targetPoint" />
          </mxGeometry>
        </mxCell>
        <mxCell id="FMnDoWdGnpKnjQVp8P1--9" value="" style="endArrow=none;html=1;rounded=0;fontStyle=1" edge="1" parent="FMnDoWdGnpKnjQVp8P1--28">
          <mxGeometry width="50" height="50" relative="1" as="geometry">
            <mxPoint y="180" as="sourcePoint" />
            <mxPoint as="targetPoint" />
          </mxGeometry>
        </mxCell>
        <mxCell id="FMnDoWdGnpKnjQVp8P1--10" value="" style="endArrow=none;html=1;rounded=0;fontStyle=1" edge="1" parent="FMnDoWdGnpKnjQVp8P1--28">
          <mxGeometry width="50" height="50" relative="1" as="geometry">
            <mxPoint x="300" y="180" as="sourcePoint" />
            <mxPoint x="300" as="targetPoint" />
          </mxGeometry>
        </mxCell>
        <mxCell id="FMnDoWdGnpKnjQVp8P1--11" value="" style="endArrow=none;html=1;rounded=0;fontStyle=1" edge="1" parent="FMnDoWdGnpKnjQVp8P1--28">
          <mxGeometry width="50" height="50" relative="1" as="geometry">
            <mxPoint x="180" y="180" as="sourcePoint" />
            <mxPoint x="180" as="targetPoint" />
          </mxGeometry>
        </mxCell>
        <mxCell id="FMnDoWdGnpKnjQVp8P1--12" value="" style="endArrow=none;html=1;rounded=0;fontStyle=1" edge="1" parent="FMnDoWdGnpKnjQVp8P1--28">
          <mxGeometry width="50" height="50" relative="1" as="geometry">
            <mxPoint x="210" y="180" as="sourcePoint" />
            <mxPoint x="210" as="targetPoint" />
          </mxGeometry>
        </mxCell>
        <mxCell id="FMnDoWdGnpKnjQVp8P1--13" value="" style="endArrow=none;html=1;rounded=0;fontStyle=1" edge="1" parent="FMnDoWdGnpKnjQVp8P1--28">
          <mxGeometry width="50" height="50" relative="1" as="geometry">
            <mxPoint x="240" y="180" as="sourcePoint" />
            <mxPoint x="240" as="targetPoint" />
          </mxGeometry>
        </mxCell>
        <mxCell id="FMnDoWdGnpKnjQVp8P1--14" value="" style="endArrow=none;html=1;rounded=0;fontStyle=1" edge="1" parent="FMnDoWdGnpKnjQVp8P1--28">
          <mxGeometry width="50" height="50" relative="1" as="geometry">
            <mxPoint x="270" y="180" as="sourcePoint" />
            <mxPoint x="270" as="targetPoint" />
          </mxGeometry>
        </mxCell>
        <mxCell id="FMnDoWdGnpKnjQVp8P1--15" value="" style="endArrow=none;html=1;rounded=0;fontStyle=1" edge="1" parent="FMnDoWdGnpKnjQVp8P1--28">
          <mxGeometry width="50" height="50" relative="1" as="geometry">
            <mxPoint x="30" y="180" as="sourcePoint" />
            <mxPoint x="30" as="targetPoint" />
          </mxGeometry>
        </mxCell>
        <mxCell id="FMnDoWdGnpKnjQVp8P1--16" value="" style="endArrow=none;html=1;rounded=0;fontStyle=1" edge="1" parent="FMnDoWdGnpKnjQVp8P1--28">
          <mxGeometry width="50" height="50" relative="1" as="geometry">
            <mxPoint x="60" y="180" as="sourcePoint" />
            <mxPoint x="60" as="targetPoint" />
          </mxGeometry>
        </mxCell>
        <mxCell id="FMnDoWdGnpKnjQVp8P1--17" value="" style="endArrow=none;html=1;rounded=0;fontStyle=1" edge="1" parent="FMnDoWdGnpKnjQVp8P1--28">
          <mxGeometry width="50" height="50" relative="1" as="geometry">
            <mxPoint x="90" y="180" as="sourcePoint" />
            <mxPoint x="90" as="targetPoint" />
          </mxGeometry>
        </mxCell>
        <mxCell id="FMnDoWdGnpKnjQVp8P1--18" value="" style="endArrow=none;html=1;rounded=0;fontStyle=1" edge="1" parent="FMnDoWdGnpKnjQVp8P1--28">
          <mxGeometry width="50" height="50" relative="1" as="geometry">
            <mxPoint x="120" y="180" as="sourcePoint" />
            <mxPoint x="120" as="targetPoint" />
          </mxGeometry>
        </mxCell>
        <mxCell id="FMnDoWdGnpKnjQVp8P1--19" value="" style="endArrow=none;html=1;rounded=0;fontStyle=1" edge="1" parent="FMnDoWdGnpKnjQVp8P1--28">
          <mxGeometry width="50" height="50" relative="1" as="geometry">
            <mxPoint x="150" y="180" as="sourcePoint" />
            <mxPoint x="150" as="targetPoint" />
          </mxGeometry>
        </mxCell>
        <mxCell id="FMnDoWdGnpKnjQVp8P1--20" value="&lt;font style=&quot;font-size: 14px;&quot;&gt;1&lt;/font&gt;" style="text;html=1;align=center;verticalAlign=middle;whiteSpace=wrap;rounded=0;fontStyle=1" vertex="1" parent="FMnDoWdGnpKnjQVp8P1--28">
          <mxGeometry width="30" height="30" as="geometry" />
        </mxCell>
        <mxCell id="FMnDoWdGnpKnjQVp8P1--23" value="&lt;font style=&quot;font-size: 14px;&quot;&gt;2&lt;/font&gt;" style="text;html=1;align=center;verticalAlign=middle;whiteSpace=wrap;rounded=0;fontStyle=1" vertex="1" parent="FMnDoWdGnpKnjQVp8P1--28">
          <mxGeometry y="30" width="30" height="30" as="geometry" />
        </mxCell>
        <mxCell id="FMnDoWdGnpKnjQVp8P1--24" value="&lt;font style=&quot;font-size: 14px;&quot;&gt;3&lt;/font&gt;" style="text;html=1;align=center;verticalAlign=middle;whiteSpace=wrap;rounded=0;fontStyle=1" vertex="1" parent="FMnDoWdGnpKnjQVp8P1--28">
          <mxGeometry y="60" width="30" height="30" as="geometry" />
        </mxCell>
        <mxCell id="FMnDoWdGnpKnjQVp8P1--25" value="&lt;font style=&quot;font-size: 14px;&quot;&gt;4&lt;/font&gt;" style="text;html=1;align=center;verticalAlign=middle;whiteSpace=wrap;rounded=0;fontStyle=1" vertex="1" parent="FMnDoWdGnpKnjQVp8P1--28">
          <mxGeometry y="90" width="30" height="30" as="geometry" />
        </mxCell>
        <mxCell id="FMnDoWdGnpKnjQVp8P1--26" value="&lt;font style=&quot;font-size: 14px;&quot;&gt;5&lt;/font&gt;" style="text;html=1;align=center;verticalAlign=middle;whiteSpace=wrap;rounded=0;fontStyle=1" vertex="1" parent="FMnDoWdGnpKnjQVp8P1--28">
          <mxGeometry y="120" width="30" height="30" as="geometry" />
        </mxCell>
        <mxCell id="FMnDoWdGnpKnjQVp8P1--27" value="&lt;font style=&quot;font-size: 14px;&quot;&gt;6&lt;/font&gt;" style="text;html=1;align=center;verticalAlign=middle;whiteSpace=wrap;rounded=0;fontStyle=1" vertex="1" parent="FMnDoWdGnpKnjQVp8P1--28">
          <mxGeometry y="150" width="30" height="30" as="geometry" />
        </mxCell>
        <mxCell id="FMnDoWdGnpKnjQVp8P1--81" value="" style="endArrow=none;dashed=1;html=1;strokeWidth=4;rounded=0;fillColor=#dae8fc;strokeColor=#3333FF;fontStyle=1" edge="1" parent="FMnDoWdGnpKnjQVp8P1--28">
          <mxGeometry width="50" height="50" relative="1" as="geometry">
            <mxPoint x="-20" y="196" as="sourcePoint" />
            <mxPoint x="320" y="196" as="targetPoint" />
          </mxGeometry>
        </mxCell>
        <mxCell id="FMnDoWdGnpKnjQVp8P1--29" value="" style="group;fontStyle=1" vertex="1" connectable="0" parent="1">
          <mxGeometry x="140" y="390" width="300" height="400" as="geometry" />
        </mxCell>
        <mxCell id="FMnDoWdGnpKnjQVp8P1--30" value="" style="endArrow=none;html=1;rounded=0;fontStyle=1" edge="1" parent="FMnDoWdGnpKnjQVp8P1--29">
          <mxGeometry width="50" height="50" relative="1" as="geometry">
            <mxPoint as="sourcePoint" />
            <mxPoint x="300" as="targetPoint" />
          </mxGeometry>
        </mxCell>
        <mxCell id="FMnDoWdGnpKnjQVp8P1--31" value="" style="endArrow=none;html=1;rounded=0;fontStyle=1" edge="1" parent="FMnDoWdGnpKnjQVp8P1--29">
          <mxGeometry width="50" height="50" relative="1" as="geometry">
            <mxPoint y="30" as="sourcePoint" />
            <mxPoint x="300" y="30" as="targetPoint" />
          </mxGeometry>
        </mxCell>
        <mxCell id="FMnDoWdGnpKnjQVp8P1--32" value="" style="endArrow=none;html=1;rounded=0;fontStyle=1" edge="1" parent="FMnDoWdGnpKnjQVp8P1--29">
          <mxGeometry width="50" height="50" relative="1" as="geometry">
            <mxPoint y="90" as="sourcePoint" />
            <mxPoint x="300" y="90" as="targetPoint" />
          </mxGeometry>
        </mxCell>
        <mxCell id="FMnDoWdGnpKnjQVp8P1--33" value="" style="endArrow=none;html=1;rounded=0;fontStyle=1" edge="1" parent="FMnDoWdGnpKnjQVp8P1--29">
          <mxGeometry width="50" height="50" relative="1" as="geometry">
            <mxPoint y="60" as="sourcePoint" />
            <mxPoint x="300" y="60" as="targetPoint" />
          </mxGeometry>
        </mxCell>
        <mxCell id="FMnDoWdGnpKnjQVp8P1--34" value="" style="endArrow=none;html=1;rounded=0;fontStyle=1" edge="1" parent="FMnDoWdGnpKnjQVp8P1--29">
          <mxGeometry width="50" height="50" relative="1" as="geometry">
            <mxPoint y="120" as="sourcePoint" />
            <mxPoint x="300" y="120" as="targetPoint" />
          </mxGeometry>
        </mxCell>
        <mxCell id="FMnDoWdGnpKnjQVp8P1--35" value="" style="endArrow=none;html=1;rounded=0;fontStyle=1" edge="1" parent="FMnDoWdGnpKnjQVp8P1--29">
          <mxGeometry width="50" height="50" relative="1" as="geometry">
            <mxPoint y="150" as="sourcePoint" />
            <mxPoint x="300" y="150" as="targetPoint" />
          </mxGeometry>
        </mxCell>
        <mxCell id="FMnDoWdGnpKnjQVp8P1--36" value="" style="endArrow=none;html=1;rounded=0;fontStyle=1" edge="1" parent="FMnDoWdGnpKnjQVp8P1--29">
          <mxGeometry width="50" height="50" relative="1" as="geometry">
            <mxPoint y="180" as="sourcePoint" />
            <mxPoint x="300" y="180" as="targetPoint" />
          </mxGeometry>
        </mxCell>
        <mxCell id="FMnDoWdGnpKnjQVp8P1--37" value="" style="endArrow=none;html=1;rounded=0;fontStyle=1" edge="1" parent="FMnDoWdGnpKnjQVp8P1--29">
          <mxGeometry width="50" height="50" relative="1" as="geometry">
            <mxPoint y="180" as="sourcePoint" />
            <mxPoint as="targetPoint" />
          </mxGeometry>
        </mxCell>
        <mxCell id="FMnDoWdGnpKnjQVp8P1--38" value="" style="endArrow=none;html=1;rounded=0;fontStyle=1" edge="1" parent="FMnDoWdGnpKnjQVp8P1--29">
          <mxGeometry width="50" height="50" relative="1" as="geometry">
            <mxPoint x="300" y="180" as="sourcePoint" />
            <mxPoint x="300" as="targetPoint" />
          </mxGeometry>
        </mxCell>
        <mxCell id="FMnDoWdGnpKnjQVp8P1--39" value="" style="endArrow=none;html=1;rounded=0;fontStyle=1" edge="1" parent="FMnDoWdGnpKnjQVp8P1--29">
          <mxGeometry width="50" height="50" relative="1" as="geometry">
            <mxPoint x="180" y="180" as="sourcePoint" />
            <mxPoint x="180" as="targetPoint" />
          </mxGeometry>
        </mxCell>
        <mxCell id="FMnDoWdGnpKnjQVp8P1--40" value="" style="endArrow=none;html=1;rounded=0;fontStyle=1" edge="1" parent="FMnDoWdGnpKnjQVp8P1--29">
          <mxGeometry width="50" height="50" relative="1" as="geometry">
            <mxPoint x="210" y="180" as="sourcePoint" />
            <mxPoint x="210" as="targetPoint" />
          </mxGeometry>
        </mxCell>
        <mxCell id="FMnDoWdGnpKnjQVp8P1--41" value="" style="endArrow=none;html=1;rounded=0;fontStyle=1" edge="1" parent="FMnDoWdGnpKnjQVp8P1--29">
          <mxGeometry width="50" height="50" relative="1" as="geometry">
            <mxPoint x="240" y="180" as="sourcePoint" />
            <mxPoint x="240" as="targetPoint" />
          </mxGeometry>
        </mxCell>
        <mxCell id="FMnDoWdGnpKnjQVp8P1--42" value="" style="endArrow=none;html=1;rounded=0;fontStyle=1" edge="1" parent="FMnDoWdGnpKnjQVp8P1--29">
          <mxGeometry width="50" height="50" relative="1" as="geometry">
            <mxPoint x="270" y="180" as="sourcePoint" />
            <mxPoint x="270" as="targetPoint" />
          </mxGeometry>
        </mxCell>
        <mxCell id="FMnDoWdGnpKnjQVp8P1--43" value="" style="endArrow=none;html=1;rounded=0;fontStyle=1" edge="1" parent="FMnDoWdGnpKnjQVp8P1--29">
          <mxGeometry width="50" height="50" relative="1" as="geometry">
            <mxPoint x="30" y="180" as="sourcePoint" />
            <mxPoint x="30" as="targetPoint" />
          </mxGeometry>
        </mxCell>
        <mxCell id="FMnDoWdGnpKnjQVp8P1--44" value="" style="endArrow=none;html=1;rounded=0;fontStyle=1" edge="1" parent="FMnDoWdGnpKnjQVp8P1--29">
          <mxGeometry width="50" height="50" relative="1" as="geometry">
            <mxPoint x="60" y="180" as="sourcePoint" />
            <mxPoint x="60" as="targetPoint" />
          </mxGeometry>
        </mxCell>
        <mxCell id="FMnDoWdGnpKnjQVp8P1--45" value="" style="endArrow=none;html=1;rounded=0;fontStyle=1" edge="1" parent="FMnDoWdGnpKnjQVp8P1--29">
          <mxGeometry width="50" height="50" relative="1" as="geometry">
            <mxPoint x="90" y="180" as="sourcePoint" />
            <mxPoint x="90" as="targetPoint" />
          </mxGeometry>
        </mxCell>
        <mxCell id="FMnDoWdGnpKnjQVp8P1--46" value="" style="endArrow=none;html=1;rounded=0;fontStyle=1" edge="1" parent="FMnDoWdGnpKnjQVp8P1--29">
          <mxGeometry width="50" height="50" relative="1" as="geometry">
            <mxPoint x="120" y="180" as="sourcePoint" />
            <mxPoint x="120" as="targetPoint" />
          </mxGeometry>
        </mxCell>
        <mxCell id="FMnDoWdGnpKnjQVp8P1--47" value="" style="endArrow=none;html=1;rounded=0;fontStyle=1" edge="1" parent="FMnDoWdGnpKnjQVp8P1--29">
          <mxGeometry width="50" height="50" relative="1" as="geometry">
            <mxPoint x="150" y="180" as="sourcePoint" />
            <mxPoint x="150" as="targetPoint" />
          </mxGeometry>
        </mxCell>
        <mxCell id="FMnDoWdGnpKnjQVp8P1--48" value="&lt;font style=&quot;font-size: 14px;&quot;&gt;1&lt;/font&gt;" style="text;html=1;align=center;verticalAlign=middle;whiteSpace=wrap;rounded=0;fontStyle=1" vertex="1" parent="FMnDoWdGnpKnjQVp8P1--29">
          <mxGeometry width="30" height="30" as="geometry" />
        </mxCell>
        <mxCell id="FMnDoWdGnpKnjQVp8P1--49" value="&lt;font style=&quot;font-size: 14px;&quot;&gt;2&lt;/font&gt;" style="text;html=1;align=center;verticalAlign=middle;whiteSpace=wrap;rounded=0;fontStyle=1" vertex="1" parent="FMnDoWdGnpKnjQVp8P1--29">
          <mxGeometry y="30" width="30" height="30" as="geometry" />
        </mxCell>
        <mxCell id="FMnDoWdGnpKnjQVp8P1--50" value="&lt;font style=&quot;font-size: 14px;&quot;&gt;3&lt;/font&gt;" style="text;html=1;align=center;verticalAlign=middle;whiteSpace=wrap;rounded=0;fontStyle=1" vertex="1" parent="FMnDoWdGnpKnjQVp8P1--29">
          <mxGeometry y="60" width="30" height="30" as="geometry" />
        </mxCell>
        <mxCell id="FMnDoWdGnpKnjQVp8P1--51" value="&lt;font style=&quot;font-size: 14px;&quot;&gt;4&lt;/font&gt;" style="text;html=1;align=center;verticalAlign=middle;whiteSpace=wrap;rounded=0;fontStyle=1" vertex="1" parent="FMnDoWdGnpKnjQVp8P1--29">
          <mxGeometry y="90" width="30" height="30" as="geometry" />
        </mxCell>
        <mxCell id="FMnDoWdGnpKnjQVp8P1--52" value="&lt;font style=&quot;font-size: 14px;&quot;&gt;5&lt;/font&gt;" style="text;html=1;align=center;verticalAlign=middle;whiteSpace=wrap;rounded=0;fontStyle=1" vertex="1" parent="FMnDoWdGnpKnjQVp8P1--29">
          <mxGeometry y="120" width="30" height="30" as="geometry" />
        </mxCell>
        <mxCell id="FMnDoWdGnpKnjQVp8P1--53" value="&lt;font style=&quot;font-size: 14px;&quot;&gt;6&lt;/font&gt;" style="text;html=1;align=center;verticalAlign=middle;whiteSpace=wrap;rounded=0;fontStyle=1" vertex="1" parent="FMnDoWdGnpKnjQVp8P1--29">
          <mxGeometry y="150" width="30" height="30" as="geometry" />
        </mxCell>
        <mxCell id="FMnDoWdGnpKnjQVp8P1--84" value="" style="html=1;points=[[0,0,0,0,5],[0,1,0,0,-5],[1,0,0,0,5],[1,1,0,0,-5]];perimeter=orthogonalPerimeter;outlineConnect=0;targetShapes=umlLifeline;portConstraint=eastwest;newEdgeStyle={&quot;curved&quot;:0,&quot;rounded&quot;:0};fillColor=#E5CCFF;strokeColor=none;opacity=50;fontStyle=1" vertex="1" parent="FMnDoWdGnpKnjQVp8P1--29">
          <mxGeometry x="5" y="-231" width="20" height="640" as="geometry" />
        </mxCell>
        <mxCell id="FMnDoWdGnpKnjQVp8P1--54" value="" style="group;fontStyle=1" vertex="1" connectable="0" parent="1">
          <mxGeometry x="140" y="600" width="300" height="180" as="geometry" />
        </mxCell>
        <mxCell id="FMnDoWdGnpKnjQVp8P1--55" value="" style="endArrow=none;html=1;rounded=0;fontStyle=1" edge="1" parent="FMnDoWdGnpKnjQVp8P1--54">
          <mxGeometry width="50" height="50" relative="1" as="geometry">
            <mxPoint as="sourcePoint" />
            <mxPoint x="300" as="targetPoint" />
          </mxGeometry>
        </mxCell>
        <mxCell id="FMnDoWdGnpKnjQVp8P1--56" value="" style="endArrow=none;html=1;rounded=0;fontStyle=1" edge="1" parent="FMnDoWdGnpKnjQVp8P1--54">
          <mxGeometry width="50" height="50" relative="1" as="geometry">
            <mxPoint y="30" as="sourcePoint" />
            <mxPoint x="300" y="30" as="targetPoint" />
          </mxGeometry>
        </mxCell>
        <mxCell id="FMnDoWdGnpKnjQVp8P1--57" value="" style="endArrow=none;html=1;rounded=0;fontStyle=1" edge="1" parent="FMnDoWdGnpKnjQVp8P1--54">
          <mxGeometry width="50" height="50" relative="1" as="geometry">
            <mxPoint y="90" as="sourcePoint" />
            <mxPoint x="300" y="90" as="targetPoint" />
          </mxGeometry>
        </mxCell>
        <mxCell id="FMnDoWdGnpKnjQVp8P1--58" value="" style="endArrow=none;html=1;rounded=0;fontStyle=1" edge="1" parent="FMnDoWdGnpKnjQVp8P1--54">
          <mxGeometry width="50" height="50" relative="1" as="geometry">
            <mxPoint y="60" as="sourcePoint" />
            <mxPoint x="300" y="60" as="targetPoint" />
          </mxGeometry>
        </mxCell>
        <mxCell id="FMnDoWdGnpKnjQVp8P1--59" value="" style="endArrow=none;html=1;rounded=0;fontStyle=1" edge="1" parent="FMnDoWdGnpKnjQVp8P1--54">
          <mxGeometry width="50" height="50" relative="1" as="geometry">
            <mxPoint y="120" as="sourcePoint" />
            <mxPoint x="300" y="120" as="targetPoint" />
          </mxGeometry>
        </mxCell>
        <mxCell id="FMnDoWdGnpKnjQVp8P1--60" value="" style="endArrow=none;html=1;rounded=0;fontStyle=1" edge="1" parent="FMnDoWdGnpKnjQVp8P1--54">
          <mxGeometry width="50" height="50" relative="1" as="geometry">
            <mxPoint y="150" as="sourcePoint" />
            <mxPoint x="300" y="150" as="targetPoint" />
          </mxGeometry>
        </mxCell>
        <mxCell id="FMnDoWdGnpKnjQVp8P1--61" value="" style="endArrow=none;html=1;rounded=0;fontStyle=1" edge="1" parent="FMnDoWdGnpKnjQVp8P1--54">
          <mxGeometry width="50" height="50" relative="1" as="geometry">
            <mxPoint y="180" as="sourcePoint" />
            <mxPoint x="300" y="180" as="targetPoint" />
          </mxGeometry>
        </mxCell>
        <mxCell id="FMnDoWdGnpKnjQVp8P1--62" value="" style="endArrow=none;html=1;rounded=0;fontStyle=1" edge="1" parent="FMnDoWdGnpKnjQVp8P1--54">
          <mxGeometry width="50" height="50" relative="1" as="geometry">
            <mxPoint y="180" as="sourcePoint" />
            <mxPoint as="targetPoint" />
          </mxGeometry>
        </mxCell>
        <mxCell id="FMnDoWdGnpKnjQVp8P1--63" value="" style="endArrow=none;html=1;rounded=0;fontStyle=1" edge="1" parent="FMnDoWdGnpKnjQVp8P1--54">
          <mxGeometry width="50" height="50" relative="1" as="geometry">
            <mxPoint x="300" y="180" as="sourcePoint" />
            <mxPoint x="300" as="targetPoint" />
          </mxGeometry>
        </mxCell>
        <mxCell id="FMnDoWdGnpKnjQVp8P1--64" value="" style="endArrow=none;html=1;rounded=0;fontStyle=1" edge="1" parent="FMnDoWdGnpKnjQVp8P1--54">
          <mxGeometry width="50" height="50" relative="1" as="geometry">
            <mxPoint x="180" y="180" as="sourcePoint" />
            <mxPoint x="180" as="targetPoint" />
          </mxGeometry>
        </mxCell>
        <mxCell id="FMnDoWdGnpKnjQVp8P1--65" value="" style="endArrow=none;html=1;rounded=0;fontStyle=1" edge="1" parent="FMnDoWdGnpKnjQVp8P1--54">
          <mxGeometry width="50" height="50" relative="1" as="geometry">
            <mxPoint x="210" y="180" as="sourcePoint" />
            <mxPoint x="210" as="targetPoint" />
          </mxGeometry>
        </mxCell>
        <mxCell id="FMnDoWdGnpKnjQVp8P1--66" value="" style="endArrow=none;html=1;rounded=0;fontStyle=1" edge="1" parent="FMnDoWdGnpKnjQVp8P1--54">
          <mxGeometry width="50" height="50" relative="1" as="geometry">
            <mxPoint x="240" y="180" as="sourcePoint" />
            <mxPoint x="240" as="targetPoint" />
          </mxGeometry>
        </mxCell>
        <mxCell id="FMnDoWdGnpKnjQVp8P1--67" value="" style="endArrow=none;html=1;rounded=0;fontStyle=1" edge="1" parent="FMnDoWdGnpKnjQVp8P1--54">
          <mxGeometry width="50" height="50" relative="1" as="geometry">
            <mxPoint x="270" y="180" as="sourcePoint" />
            <mxPoint x="270" as="targetPoint" />
          </mxGeometry>
        </mxCell>
        <mxCell id="FMnDoWdGnpKnjQVp8P1--68" value="" style="endArrow=none;html=1;rounded=0;fontStyle=1" edge="1" parent="FMnDoWdGnpKnjQVp8P1--54">
          <mxGeometry width="50" height="50" relative="1" as="geometry">
            <mxPoint x="30" y="180" as="sourcePoint" />
            <mxPoint x="30" as="targetPoint" />
          </mxGeometry>
        </mxCell>
        <mxCell id="FMnDoWdGnpKnjQVp8P1--69" value="" style="endArrow=none;html=1;rounded=0;fontStyle=1" edge="1" parent="FMnDoWdGnpKnjQVp8P1--54">
          <mxGeometry width="50" height="50" relative="1" as="geometry">
            <mxPoint x="60" y="180" as="sourcePoint" />
            <mxPoint x="60" as="targetPoint" />
          </mxGeometry>
        </mxCell>
        <mxCell id="FMnDoWdGnpKnjQVp8P1--70" value="" style="endArrow=none;html=1;rounded=0;fontStyle=1" edge="1" parent="FMnDoWdGnpKnjQVp8P1--54">
          <mxGeometry width="50" height="50" relative="1" as="geometry">
            <mxPoint x="90" y="180" as="sourcePoint" />
            <mxPoint x="90" as="targetPoint" />
          </mxGeometry>
        </mxCell>
        <mxCell id="FMnDoWdGnpKnjQVp8P1--71" value="" style="endArrow=none;html=1;rounded=0;fontStyle=1" edge="1" parent="FMnDoWdGnpKnjQVp8P1--54">
          <mxGeometry width="50" height="50" relative="1" as="geometry">
            <mxPoint x="120" y="180" as="sourcePoint" />
            <mxPoint x="120" as="targetPoint" />
          </mxGeometry>
        </mxCell>
        <mxCell id="FMnDoWdGnpKnjQVp8P1--72" value="" style="endArrow=none;html=1;rounded=0;fontStyle=1" edge="1" parent="FMnDoWdGnpKnjQVp8P1--54">
          <mxGeometry width="50" height="50" relative="1" as="geometry">
            <mxPoint x="150" y="180" as="sourcePoint" />
            <mxPoint x="150" as="targetPoint" />
          </mxGeometry>
        </mxCell>
        <mxCell id="FMnDoWdGnpKnjQVp8P1--73" value="&lt;font style=&quot;font-size: 14px;&quot;&gt;1&lt;/font&gt;" style="text;html=1;align=center;verticalAlign=middle;whiteSpace=wrap;rounded=0;fontStyle=1" vertex="1" parent="FMnDoWdGnpKnjQVp8P1--54">
          <mxGeometry width="30" height="30" as="geometry" />
        </mxCell>
        <mxCell id="FMnDoWdGnpKnjQVp8P1--74" value="&lt;font style=&quot;font-size: 14px;&quot;&gt;2&lt;/font&gt;" style="text;html=1;align=center;verticalAlign=middle;whiteSpace=wrap;rounded=0;fontStyle=1" vertex="1" parent="FMnDoWdGnpKnjQVp8P1--54">
          <mxGeometry y="30" width="30" height="30" as="geometry" />
        </mxCell>
        <mxCell id="FMnDoWdGnpKnjQVp8P1--75" value="&lt;font style=&quot;font-size: 14px;&quot;&gt;3&lt;/font&gt;" style="text;html=1;align=center;verticalAlign=middle;whiteSpace=wrap;rounded=0;fontStyle=1" vertex="1" parent="FMnDoWdGnpKnjQVp8P1--54">
          <mxGeometry y="60" width="30" height="30" as="geometry" />
        </mxCell>
        <mxCell id="FMnDoWdGnpKnjQVp8P1--76" value="&lt;font style=&quot;font-size: 14px;&quot;&gt;4&lt;/font&gt;" style="text;html=1;align=center;verticalAlign=middle;whiteSpace=wrap;rounded=0;fontStyle=1" vertex="1" parent="FMnDoWdGnpKnjQVp8P1--54">
          <mxGeometry y="90" width="30" height="30" as="geometry" />
        </mxCell>
        <mxCell id="FMnDoWdGnpKnjQVp8P1--77" value="&lt;font style=&quot;font-size: 14px;&quot;&gt;5&lt;/font&gt;" style="text;html=1;align=center;verticalAlign=middle;whiteSpace=wrap;rounded=0;fontStyle=1" vertex="1" parent="FMnDoWdGnpKnjQVp8P1--54">
          <mxGeometry y="120" width="30" height="30" as="geometry" />
        </mxCell>
        <mxCell id="FMnDoWdGnpKnjQVp8P1--78" value="&lt;font style=&quot;font-size: 14px;&quot;&gt;6&lt;/font&gt;" style="text;html=1;align=center;verticalAlign=middle;whiteSpace=wrap;rounded=0;fontStyle=1" vertex="1" parent="FMnDoWdGnpKnjQVp8P1--54">
          <mxGeometry y="150" width="30" height="30" as="geometry" />
        </mxCell>
        <mxCell id="FMnDoWdGnpKnjQVp8P1--82" value="" style="endArrow=none;dashed=1;html=1;strokeWidth=4;rounded=0;fillColor=#dae8fc;strokeColor=#3333FF;fontStyle=1" edge="1" parent="FMnDoWdGnpKnjQVp8P1--54">
          <mxGeometry width="50" height="50" relative="1" as="geometry">
            <mxPoint x="-10" y="195" as="sourcePoint" />
            <mxPoint x="330" y="195" as="targetPoint" />
          </mxGeometry>
        </mxCell>
        <mxCell id="FMnDoWdGnpKnjQVp8P1--79" value="" style="endArrow=none;dashed=1;html=1;strokeWidth=4;rounded=0;fillColor=#dae8fc;strokeColor=#3333FF;fontStyle=1" edge="1" parent="1">
          <mxGeometry width="50" height="50" relative="1" as="geometry">
            <mxPoint x="120" y="167" as="sourcePoint" />
            <mxPoint x="460" y="167" as="targetPoint" />
          </mxGeometry>
        </mxCell>
        <mxCell id="FMnDoWdGnpKnjQVp8P1--80" value="" style="endArrow=none;dashed=1;html=1;strokeWidth=4;rounded=0;fillColor=#dae8fc;strokeColor=#3333FF;fontStyle=1" edge="1" parent="1">
          <mxGeometry width="50" height="50" relative="1" as="geometry">
            <mxPoint x="120" y="585" as="sourcePoint" />
            <mxPoint x="460" y="585" as="targetPoint" />
          </mxGeometry>
        </mxCell>
        <mxCell id="FMnDoWdGnpKnjQVp8P1--85" value="&lt;font style=&quot;&quot; color=&quot;#9933ff&quot; size=&quot;1&quot;&gt;&lt;span style=&quot;font-size: 16px;&quot;&gt;index&lt;/span&gt;&lt;/font&gt;" style="text;html=1;align=center;verticalAlign=middle;whiteSpace=wrap;rounded=0;fontStyle=1" vertex="1" parent="1">
          <mxGeometry x="125" y="126" width="60" height="30" as="geometry" />
        </mxCell>
        <mxCell id="FMnDoWdGnpKnjQVp8P1--86" value="&lt;font style=&quot;&quot; size=&quot;1&quot; color=&quot;#3333ff&quot;&gt;&lt;span style=&quot;font-size: 16px;&quot;&gt;divisions&lt;/span&gt;&lt;/font&gt;" style="text;html=1;align=center;verticalAlign=middle;whiteSpace=wrap;rounded=0;fontStyle=1" vertex="1" parent="1">
          <mxGeometry x="540" y="460" width="80" height="30" as="geometry" />
        </mxCell>
        <mxCell id="FMnDoWdGnpKnjQVp8P1--87" value="" style="endArrow=block;html=1;rounded=0;exitX=0;exitY=0;exitDx=0;exitDy=0;endFill=1;endSize=12;strokeColor=#3333FF;fontStyle=1" edge="1" parent="1" source="FMnDoWdGnpKnjQVp8P1--86">
          <mxGeometry width="50" height="50" relative="1" as="geometry">
            <mxPoint x="370" y="450" as="sourcePoint" />
            <mxPoint x="460" y="380" as="targetPoint" />
          </mxGeometry>
        </mxCell>
        <mxCell id="FMnDoWdGnpKnjQVp8P1--88" value="" style="endArrow=block;html=1;rounded=0;exitX=0;exitY=1;exitDx=0;exitDy=0;endFill=1;endSize=12;strokeColor=#3333FF;fontStyle=1" edge="1" parent="1" source="FMnDoWdGnpKnjQVp8P1--86">
          <mxGeometry width="50" height="50" relative="1" as="geometry">
            <mxPoint x="560" y="480" as="sourcePoint" />
            <mxPoint x="460" y="580" as="targetPoint" />
          </mxGeometry>
        </mxCell>
        <mxCell id="FMnDoWdGnpKnjQVp8P1--89" value="" style="endArrow=block;html=1;rounded=0;exitX=0.5;exitY=1;exitDx=0;exitDy=0;endFill=1;endSize=12;strokeColor=#3333FF;fontStyle=1" edge="1" parent="1" source="FMnDoWdGnpKnjQVp8P1--86">
          <mxGeometry width="50" height="50" relative="1" as="geometry">
            <mxPoint x="550" y="500" as="sourcePoint" />
            <mxPoint x="470" y="790" as="targetPoint" />
          </mxGeometry>
        </mxCell>
        <mxCell id="FMnDoWdGnpKnjQVp8P1--90" value="" style="endArrow=block;html=1;rounded=0;exitX=0.5;exitY=0;exitDx=0;exitDy=0;endFill=1;endSize=12;strokeColor=#3333FF;fontStyle=1" edge="1" parent="1" source="FMnDoWdGnpKnjQVp8P1--86">
          <mxGeometry width="50" height="50" relative="1" as="geometry">
            <mxPoint x="550" y="470" as="sourcePoint" />
            <mxPoint x="460" y="170" as="targetPoint" />
          </mxGeometry>
        </mxCell>
      </root>
    </mxGraphModel>
  </diagram>
</mxfile>
